<?xml version="1.0" encoding="UTF-8" standalone="no"?><!DOCTYPE svg PUBLIC "-//W3C//DTD SVG 1.1//EN" "http://www.w3.org/Graphics/SVG/1.1/DTD/svg11.dtd"><svg width="100%" height="100%" viewBox="0 0 400 350" version="1.1" xmlns="http://www.w3.org/2000/svg" xmlns:xlink="http://www.w3.org/1999/xlink" xml:space="preserve" xmlns:serif="http://www.serif.com/" style="fill-rule:evenodd;clip-rule:evenodd;stroke-linejoin:round;stroke-miterlimit:1.41421;"><rect id="Artboard1" x="0" y="0" width="400" height="349.418" style="fill:none;"/><circle cx="200" cy="140" r="100" style="fill:#206bfc;"/><g><path d="M207.071,77.775c3.903,3.902 3.903,10.239 0,14.142c-3.903,3.902 -10.239,3.902 -14.142,0c-3.903,-3.903 -3.903,-10.24 0,-14.142c3.903,-3.903 10.239,-3.903 14.142,0Z" style="fill:#fff;"/><path d="M225.456,96.159c3.902,3.903 3.902,10.24 0,14.143c-3.903,3.902 -10.24,3.902 -14.142,0c-3.903,-3.903 -3.903,-10.24 0,-14.143c3.902,-3.902 10.239,-3.902 14.142,0Z" style="fill:#fff;"/><path d="M243.841,114.544c3.902,3.903 3.902,10.24 0,14.142c-3.903,3.903 -10.24,3.903 -14.143,0c-3.902,-3.902 -3.902,-10.239 0,-14.142c3.903,-3.902 10.24,-3.902 14.143,0Z" style="fill:#fff;"/><path d="M262.225,132.929c3.903,3.903 3.903,10.239 0,14.142c-3.902,3.903 -10.239,3.903 -14.142,0c-3.902,-3.903 -3.902,-10.239 0,-14.142c3.903,-3.903 10.24,-3.903 14.142,0Z" style="fill:#fff;"/><path d="M243.841,151.314c3.902,3.902 3.902,10.239 0,14.142c-3.903,3.902 -10.24,3.902 -14.143,0c-3.902,-3.903 -3.902,-10.24 0,-14.142c3.903,-3.903 10.24,-3.903 14.143,0Z" style="fill:#fff;"/><path d="M170.302,114.544c3.902,3.903 3.902,10.24 0,14.142c-3.903,3.903 -10.24,3.903 -14.143,0c-3.902,-3.902 -3.902,-10.239 0,-14.142c3.903,-3.902 10.24,-3.902 14.143,0Z" style="fill:#fff;"/><path d="M187.069,94.873c3.903,3.903 3.903,10.24 0,14.143c-3.903,3.902 -10.239,3.902 -14.142,0c-3.903,-3.903 -3.903,-10.24 0,-14.143c3.903,-3.902 10.239,-3.902 14.142,0Z" style="fill:#fff;"/><path d="M188.686,132.929c3.903,3.903 3.903,10.239 0,14.142c-3.902,3.903 -10.239,3.903 -14.142,0c-3.902,-3.903 -3.902,-10.239 0,-14.142c3.903,-3.903 10.24,-3.903 14.142,0Z" style="fill:#fff;"/><path d="M207.071,151.314c3.903,3.902 3.903,10.239 0,14.142c-3.903,3.902 -10.239,3.902 -14.142,0c-3.903,-3.903 -3.903,-10.24 0,-14.142c3.903,-3.903 10.239,-3.903 14.142,0Z" style="fill:#fff;"/><path d="M225.456,169.698c3.902,3.903 3.902,10.24 0,14.143c-3.903,3.902 -10.24,3.902 -14.142,0c-3.903,-3.903 -3.903,-10.24 0,-14.143c3.902,-3.902 10.239,-3.902 14.142,0Z" style="fill:#fff;"/><path d="M151.917,132.929c3.902,3.903 3.902,10.239 0,14.142c-3.903,3.903 -10.24,3.903 -14.142,0c-3.903,-3.903 -3.903,-10.239 0,-14.142c3.902,-3.903 10.239,-3.903 14.142,0Z" style="fill:#fff;"/><path d="M170.302,151.314c3.902,3.902 3.902,10.239 0,14.142c-3.903,3.902 -10.24,3.902 -14.143,0c-3.902,-3.903 -3.902,-10.24 0,-14.142c3.903,-3.903 10.24,-3.903 14.143,0Z" style="fill:#fff;"/><path d="M188.686,169.698c3.903,3.903 3.903,10.24 0,14.143c-3.902,3.902 -10.239,3.902 -14.142,0c-3.902,-3.903 -3.902,-10.24 0,-14.143c3.903,-3.902 10.24,-3.902 14.142,0Z" style="fill:#fff;"/><path d="M207.071,188.083c3.903,3.903 3.903,10.24 0,14.142c-3.903,3.903 -10.239,3.903 -14.142,0c-3.903,-3.902 -3.903,-10.239 0,-14.142c3.903,-3.902 10.239,-3.902 14.142,0Z" style="fill:#fff;"/><path d="M225.456,132.929c3.902,3.903 3.902,10.239 0,14.142c-3.903,3.903 -10.24,3.903 -14.142,0c-3.903,-3.903 -3.903,-10.239 0,-14.142c3.902,-3.903 10.239,-3.903 14.142,0Z" style="fill:#fff;"/><path d="M207.071,114.544c3.903,3.903 3.903,10.24 0,14.142c-3.903,3.903 -10.239,3.903 -14.142,0c-3.903,-3.902 -3.903,-10.239 0,-14.142c3.903,-3.902 10.239,-3.902 14.142,0Z" style="fill:#fff;"/></g><g><path d="M105.212,295.032c0,0.308 -0.01,0.579 -0.029,0.81c-0.019,0.232 -0.053,0.434 -0.101,0.608c-0.048,0.174 -0.111,0.328 -0.188,0.463c-0.078,0.136 -0.213,0.3 -0.406,0.493c-0.193,0.193 -0.598,0.487 -1.216,0.883c-0.617,0.395 -1.385,0.781 -2.301,1.158c-0.917,0.376 -1.969,0.695 -3.156,0.955c-1.187,0.261 -2.485,0.391 -3.894,0.391c-2.432,0 -4.627,-0.405 -6.587,-1.216c-1.959,-0.811 -3.628,-2.007 -5.008,-3.59c-1.38,-1.583 -2.442,-3.537 -3.185,-5.863c-0.743,-2.326 -1.115,-5.004 -1.115,-8.034c0,-3.107 0.401,-5.877 1.202,-8.309c0.801,-2.432 1.925,-4.492 3.373,-6.181c1.447,-1.689 3.18,-2.977 5.197,-3.865c2.017,-0.888 4.251,-1.332 6.702,-1.332c1.081,0 2.133,0.101 3.156,0.304c1.023,0.203 1.968,0.458 2.837,0.767c0.869,0.309 1.641,0.666 2.316,1.071c0.676,0.406 1.144,0.739 1.404,0.999c0.261,0.261 0.43,0.459 0.507,0.594c0.077,0.135 0.14,0.294 0.188,0.477c0.048,0.184 0.087,0.401 0.116,0.652c0.029,0.251 0.043,0.55 0.043,0.897c0,0.386 -0.019,0.715 -0.058,0.985c-0.039,0.27 -0.097,0.497 -0.174,0.68c-0.078,0.183 -0.17,0.319 -0.277,0.405c-0.107,0.087 -0.238,0.131 -0.393,0.131c-0.272,0 -0.65,-0.188 -1.135,-0.565c-0.485,-0.376 -1.111,-0.791 -1.878,-1.245c-0.766,-0.453 -1.698,-0.868 -2.794,-1.245c-1.096,-0.376 -2.411,-0.564 -3.944,-0.564c-1.668,0 -3.187,0.333 -4.555,0.999c-1.368,0.665 -2.537,1.645 -3.507,2.938c-0.97,1.293 -1.722,2.871 -2.256,4.734c-0.534,1.862 -0.8,3.99 -0.8,6.384c0,2.374 0.257,4.473 0.771,6.297c0.514,1.824 1.252,3.348 2.212,4.574c0.961,1.226 2.139,2.152 3.536,2.779c1.398,0.628 2.979,0.941 4.745,0.941c1.494,0 2.799,-0.183 3.914,-0.55c1.116,-0.367 2.067,-0.777 2.852,-1.23c0.786,-0.454 1.431,-0.864 1.936,-1.231c0.504,-0.366 0.902,-0.55 1.193,-0.55c0.136,0 0.253,0.029 0.35,0.087c0.097,0.058 0.174,0.169 0.233,0.333c0.058,0.164 0.101,0.391 0.13,0.68c0.03,0.29 0.044,0.657 0.044,1.101Z" style="fill:#206bfc;fill-rule:nonzero;stroke:#f00;stroke-opacity:0;stroke-width:1px;"/><path d="M135.496,286.288c0,2.123 -0.28,4.078 -0.84,5.863c-0.56,1.785 -1.395,3.324 -2.504,4.618c-1.11,1.293 -2.5,2.301 -4.169,3.025c-1.67,0.724 -3.605,1.086 -5.805,1.086c-2.143,0 -4.01,-0.319 -5.602,-0.956c-1.593,-0.637 -2.92,-1.563 -3.981,-2.779c-1.062,-1.216 -1.853,-2.692 -2.374,-4.43c-0.521,-1.737 -0.782,-3.705 -0.782,-5.906c0,-2.123 0.275,-4.077 0.825,-5.862c0.55,-1.786 1.38,-3.325 2.49,-4.618c1.11,-1.293 2.495,-2.297 4.155,-3.011c1.66,-0.714 3.599,-1.071 5.819,-1.071c2.142,0 4.01,0.318 5.602,0.955c1.592,0.637 2.919,1.563 3.981,2.779c1.061,1.216 1.858,2.693 2.388,4.43c0.531,1.737 0.797,3.696 0.797,5.877Zm-4.951,0.319c0,-1.409 -0.132,-2.741 -0.395,-3.996c-0.263,-1.254 -0.696,-2.354 -1.3,-3.3c-0.603,-0.946 -1.421,-1.694 -2.454,-2.244c-1.032,-0.55 -2.317,-0.825 -3.856,-0.825c-1.421,0 -2.644,0.251 -3.666,0.753c-1.023,0.501 -1.865,1.211 -2.527,2.128c-0.662,0.916 -1.154,2.002 -1.475,3.257c-0.322,1.254 -0.482,2.625 -0.482,4.111c0,1.428 0.131,2.77 0.394,4.024c0.263,1.255 0.701,2.35 1.315,3.286c0.613,0.936 1.436,1.679 2.468,2.229c1.032,0.55 2.318,0.826 3.856,0.826c1.403,0 2.62,-0.251 3.652,-0.753c1.032,-0.502 1.88,-1.207 2.542,-2.114c0.662,-0.907 1.149,-1.988 1.46,-3.242c0.312,-1.255 0.468,-2.635 0.468,-4.14Z" style="fill:#206bfc;fill-rule:nonzero;stroke:#f00;stroke-opacity:0;stroke-width:1px;"/><path d="M147.308,299.606c0,0.154 -0.039,0.285 -0.116,0.391c-0.077,0.106 -0.203,0.198 -0.376,0.275c-0.174,0.077 -0.415,0.135 -0.724,0.174c-0.309,0.038 -0.705,0.057 -1.187,0.057c-0.463,0 -0.849,-0.019 -1.158,-0.057c-0.309,-0.039 -0.555,-0.097 -0.738,-0.174c-0.184,-0.077 -0.309,-0.169 -0.377,-0.275c-0.067,-0.106 -0.101,-0.237 -0.101,-0.391l0,-38.68c0,-0.154 0.034,-0.289 0.101,-0.405c0.068,-0.116 0.193,-0.212 0.377,-0.289c0.183,-0.078 0.429,-0.135 0.738,-0.174c0.309,-0.039 0.695,-0.058 1.158,-0.058c0.482,0 0.878,0.019 1.187,0.058c0.309,0.039 0.55,0.096 0.724,0.174c0.173,0.077 0.299,0.173 0.376,0.289c0.077,0.116 0.116,0.251 0.116,0.405l0,38.68Z" style="fill:#206bfc;fill-rule:nonzero;stroke:#f00;stroke-opacity:0;stroke-width:1px;"/><path d="M180.371,286.288c0,2.123 -0.28,4.078 -0.84,5.863c-0.56,1.785 -1.394,3.324 -2.504,4.618c-1.11,1.293 -2.5,2.301 -4.169,3.025c-1.67,0.724 -3.605,1.086 -5.805,1.086c-2.142,0 -4.01,-0.319 -5.602,-0.956c-1.593,-0.637 -2.919,-1.563 -3.981,-2.779c-1.062,-1.216 -1.853,-2.692 -2.374,-4.43c-0.521,-1.737 -0.782,-3.705 -0.782,-5.906c0,-2.123 0.275,-4.077 0.825,-5.862c0.55,-1.786 1.38,-3.325 2.49,-4.618c1.11,-1.293 2.495,-2.297 4.155,-3.011c1.66,-0.714 3.599,-1.071 5.819,-1.071c2.142,0 4.01,0.318 5.602,0.955c1.593,0.637 2.919,1.563 3.981,2.779c1.062,1.216 1.858,2.693 2.389,4.43c0.53,1.737 0.796,3.696 0.796,5.877Zm-4.951,0.319c0,-1.409 -0.131,-2.741 -0.394,-3.996c-0.263,-1.254 -0.697,-2.354 -1.301,-3.3c-0.603,-0.946 -1.421,-1.694 -2.453,-2.244c-1.033,-0.55 -2.318,-0.825 -3.857,-0.825c-1.421,0 -2.643,0.251 -3.666,0.753c-1.022,0.501 -1.865,1.211 -2.527,2.128c-0.662,0.916 -1.154,2.002 -1.475,3.257c-0.321,1.254 -0.482,2.625 -0.482,4.111c0,1.428 0.131,2.77 0.394,4.024c0.263,1.255 0.702,2.35 1.315,3.286c0.613,0.936 1.436,1.679 2.468,2.229c1.033,0.55 2.318,0.826 3.857,0.826c1.402,0 2.619,-0.251 3.651,-0.753c1.033,-0.502 1.88,-1.207 2.542,-2.114c0.662,-0.907 1.149,-1.988 1.46,-3.242c0.312,-1.255 0.468,-2.635 0.468,-4.14Z" style="fill:#206bfc;fill-rule:nonzero;stroke:#f00;stroke-opacity:0;stroke-width:1px;"/><path d="M202.635,275.258c0,0.424 -0.01,0.781 -0.029,1.071c-0.02,0.289 -0.058,0.516 -0.116,0.68c-0.058,0.164 -0.13,0.29 -0.217,0.376c-0.087,0.087 -0.208,0.131 -0.362,0.131c-0.155,0 -0.343,-0.044 -0.565,-0.131c-0.222,-0.086 -0.473,-0.173 -0.752,-0.26c-0.28,-0.087 -0.594,-0.169 -0.941,-0.246c-0.348,-0.077 -0.724,-0.116 -1.13,-0.116c-0.482,0 -0.955,0.097 -1.418,0.29c-0.463,0.193 -0.951,0.511 -1.462,0.955c-0.512,0.444 -1.047,1.033 -1.607,1.766c-0.56,0.733 -1.177,1.631 -1.853,2.693l0,17.139c0,0.154 -0.039,0.285 -0.116,0.391c-0.077,0.106 -0.202,0.198 -0.376,0.275c-0.174,0.077 -0.415,0.135 -0.724,0.174c-0.309,0.038 -0.704,0.057 -1.187,0.057c-0.463,0 -0.849,-0.019 -1.158,-0.057c-0.309,-0.039 -0.555,-0.097 -0.738,-0.174c-0.184,-0.077 -0.309,-0.169 -0.377,-0.275c-0.067,-0.106 -0.101,-0.237 -0.101,-0.391l0,-26.057c0,-0.154 0.029,-0.284 0.087,-0.39c0.058,-0.107 0.174,-0.203 0.347,-0.29c0.174,-0.087 0.396,-0.145 0.666,-0.174c0.27,-0.029 0.627,-0.043 1.071,-0.043c0.425,0 0.777,0.014 1.057,0.043c0.28,0.029 0.497,0.087 0.652,0.174c0.154,0.087 0.265,0.183 0.332,0.29c0.068,0.106 0.102,0.236 0.102,0.39l0,3.793c0.714,-1.042 1.385,-1.891 2.012,-2.548c0.627,-0.656 1.221,-1.172 1.78,-1.549c0.56,-0.376 1.115,-0.637 1.665,-0.781c0.55,-0.145 1.105,-0.217 1.665,-0.217c0.251,0 0.536,0.014 0.854,0.043c0.318,0.029 0.651,0.082 0.999,0.159c0.347,0.077 0.661,0.164 0.941,0.261c0.28,0.096 0.477,0.193 0.593,0.289c0.116,0.097 0.193,0.189 0.232,0.275c0.038,0.087 0.072,0.198 0.101,0.333c0.029,0.135 0.048,0.333 0.058,0.594c0.01,0.26 0.015,0.613 0.015,1.057Z" style="fill:#206bfc;fill-rule:nonzero;stroke:#f00;stroke-opacity:0;stroke-width:1px;"/><path d="M236.769,267.962c0,0.366 -0.02,0.69 -0.058,0.97c-0.039,0.279 -0.097,0.511 -0.174,0.694c-0.077,0.184 -0.174,0.314 -0.289,0.391c-0.116,0.077 -0.242,0.116 -0.377,0.116c-0.231,0 -0.617,-0.183 -1.158,-0.55c-0.54,-0.367 -1.264,-0.772 -2.171,-1.216c-0.907,-0.444 -1.993,-0.849 -3.257,-1.216c-1.265,-0.367 -2.765,-0.55 -4.502,-0.55c-2.066,0 -3.918,0.376 -5.559,1.129c-1.641,0.753 -3.03,1.795 -4.169,3.127c-1.139,1.332 -2.012,2.914 -2.62,4.748c-0.608,1.834 -0.912,3.822 -0.912,5.964c0,2.393 0.333,4.516 0.999,6.369c0.666,1.853 1.587,3.417 2.765,4.691c1.177,1.273 2.581,2.239 4.212,2.895c1.631,0.656 3.421,0.984 5.371,0.984c1.158,0 2.33,-0.14 3.517,-0.42c1.187,-0.28 2.292,-0.699 3.315,-1.259l0,-10.915l-8.685,0c-0.329,0 -0.575,-0.164 -0.739,-0.492c-0.164,-0.328 -0.246,-0.84 -0.246,-1.535c0,-0.366 0.02,-0.68 0.058,-0.94c0.039,-0.261 0.101,-0.473 0.188,-0.637c0.087,-0.164 0.189,-0.285 0.304,-0.362c0.116,-0.077 0.261,-0.116 0.435,-0.116l11.899,0c0.212,0 0.424,0.039 0.637,0.116c0.212,0.077 0.405,0.193 0.579,0.347c0.173,0.155 0.309,0.367 0.405,0.637c0.097,0.27 0.145,0.579 0.145,0.927l0,14.273c0,0.502 -0.087,0.936 -0.261,1.303c-0.173,0.366 -0.54,0.69 -1.1,0.969c-0.56,0.28 -1.283,0.584 -2.171,0.912c-0.888,0.329 -1.805,0.608 -2.751,0.84c-0.945,0.232 -1.901,0.405 -2.866,0.521c-0.965,0.116 -1.92,0.174 -2.866,0.174c-2.895,0 -5.482,-0.449 -7.759,-1.346c-2.278,-0.898 -4.203,-2.177 -5.776,-3.836c-1.573,-1.66 -2.775,-3.648 -3.605,-5.965c-0.83,-2.316 -1.244,-4.902 -1.244,-7.759c0,-2.972 0.448,-5.664 1.346,-8.077c0.897,-2.413 2.162,-4.468 3.792,-6.167c1.631,-1.698 3.59,-3.016 5.878,-3.952c2.287,-0.936 4.82,-1.404 7.599,-1.404c1.429,0 2.77,0.126 4.025,0.376c1.254,0.251 2.369,0.546 3.344,0.883c0.974,0.338 1.795,0.705 2.461,1.101c0.665,0.395 1.124,0.719 1.375,0.97c0.251,0.25 0.424,0.54 0.521,0.868c0.096,0.328 0.145,0.801 0.145,1.419Z" style="fill:#206bfc;fill-rule:nonzero;stroke:#f00;stroke-opacity:0;stroke-width:1px;"/><path d="M271.019,299.577c0,0.154 -0.029,0.289 -0.087,0.405c-0.058,0.116 -0.184,0.213 -0.377,0.29c-0.193,0.077 -0.463,0.135 -0.81,0.174c-0.348,0.038 -0.811,0.057 -1.39,0.057c-0.502,0 -0.912,-0.019 -1.23,-0.057c-0.319,-0.039 -0.575,-0.102 -0.768,-0.189c-0.193,-0.087 -0.342,-0.207 -0.448,-0.362c-0.107,-0.154 -0.198,-0.347 -0.275,-0.579l-3.446,-8.83c-0.405,-1.004 -0.825,-1.925 -1.259,-2.765c-0.434,-0.839 -0.951,-1.563 -1.549,-2.171c-0.598,-0.608 -1.303,-1.081 -2.114,-1.419c-0.81,-0.338 -1.785,-0.506 -2.924,-0.506l-3.329,0l0,15.952c0,0.154 -0.044,0.289 -0.13,0.405c-0.087,0.116 -0.222,0.208 -0.406,0.275c-0.183,0.068 -0.434,0.126 -0.752,0.174c-0.319,0.048 -0.719,0.072 -1.202,0.072c-0.482,0 -0.883,-0.024 -1.201,-0.072c-0.319,-0.048 -0.575,-0.106 -0.768,-0.174c-0.193,-0.067 -0.328,-0.159 -0.405,-0.275c-0.077,-0.116 -0.116,-0.251 -0.116,-0.405l0,-34.684c0,-0.753 0.198,-1.279 0.594,-1.578c0.395,-0.299 0.815,-0.449 1.259,-0.449l7.962,0c0.946,0 1.732,0.024 2.359,0.073c0.628,0.048 1.192,0.101 1.694,0.159c1.448,0.251 2.726,0.646 3.836,1.187c1.11,0.54 2.041,1.225 2.794,2.055c0.753,0.83 1.317,1.781 1.694,2.852c0.376,1.071 0.564,2.254 0.564,3.547c0,1.254 -0.169,2.379 -0.506,3.373c-0.338,0.994 -0.826,1.872 -1.462,2.634c-0.637,0.763 -1.4,1.424 -2.288,1.983c-0.888,0.56 -1.882,1.033 -2.982,1.419c0.618,0.27 1.178,0.613 1.68,1.028c0.501,0.415 0.969,0.912 1.404,1.491c0.434,0.579 0.844,1.245 1.23,1.998c0.386,0.752 0.772,1.602 1.158,2.547l3.359,8.252c0.27,0.694 0.444,1.182 0.521,1.462c0.077,0.279 0.116,0.497 0.116,0.651Zm-7.499,-26.317c0,-1.467 -0.328,-2.707 -0.984,-3.72c-0.657,-1.014 -1.757,-1.742 -3.301,-2.186c-0.482,-0.135 -1.028,-0.232 -1.636,-0.29c-0.608,-0.058 -1.404,-0.087 -2.388,-0.087l-4.198,0l0,12.623l4.864,0c1.312,0 2.446,-0.159 3.402,-0.477c0.955,-0.319 1.751,-0.763 2.388,-1.332c0.637,-0.57 1.105,-1.24 1.404,-2.012c0.299,-0.772 0.449,-1.612 0.449,-2.519Z" style="fill:#206bfc;fill-rule:nonzero;stroke:#f00;stroke-opacity:0;stroke-width:1px;"/><path d="M283.207,299.577c0,0.154 -0.038,0.289 -0.116,0.405c-0.077,0.116 -0.212,0.208 -0.405,0.275c-0.193,0.068 -0.449,0.126 -0.767,0.174c-0.319,0.048 -0.719,0.072 -1.202,0.072c-0.463,0 -0.859,-0.024 -1.187,-0.072c-0.328,-0.048 -0.588,-0.106 -0.781,-0.174c-0.193,-0.067 -0.328,-0.159 -0.406,-0.275c-0.077,-0.116 -0.115,-0.251 -0.115,-0.405l0,-35.958c0,-0.154 0.043,-0.29 0.13,-0.405c0.087,-0.116 0.231,-0.208 0.434,-0.275c0.203,-0.068 0.463,-0.126 0.782,-0.174c0.318,-0.048 0.699,-0.072 1.143,-0.072c0.483,0 0.883,0.024 1.202,0.072c0.318,0.048 0.574,0.106 0.767,0.174c0.193,0.067 0.328,0.159 0.405,0.275c0.078,0.115 0.116,0.251 0.116,0.405l0,35.958Z" style="fill:#206bfc;fill-rule:nonzero;stroke:#f00;stroke-opacity:0;stroke-width:1px;"/><path d="M321.974,281.048c0,3.242 -0.415,6.075 -1.245,8.497c-0.83,2.423 -2.041,4.43 -3.634,6.022c-1.592,1.593 -3.546,2.784 -5.863,3.576c-2.316,0.791 -5.076,1.187 -8.28,1.187l-7.933,0c-0.443,0 -0.863,-0.15 -1.259,-0.449c-0.396,-0.299 -0.593,-0.825 -0.593,-1.578l0,-33.41c0,-0.753 0.197,-1.279 0.593,-1.578c0.396,-0.299 0.816,-0.449 1.259,-0.449l8.483,0c3.243,0 5.984,0.42 8.223,1.26c2.239,0.839 4.116,2.046 5.631,3.619c1.515,1.573 2.663,3.479 3.445,5.718c0.782,2.238 1.173,4.767 1.173,7.585Zm-5.241,0.203c0,-2.027 -0.251,-3.914 -0.752,-5.661c-0.502,-1.746 -1.289,-3.257 -2.36,-4.53c-1.071,-1.274 -2.427,-2.268 -4.068,-2.982c-1.64,-0.715 -3.754,-1.072 -6.34,-1.072l-5.067,0l0,29.155l5.125,0c2.393,0 4.41,-0.299 6.051,-0.898c1.64,-0.598 3.011,-1.515 4.111,-2.75c1.1,-1.236 1.925,-2.784 2.475,-4.647c0.55,-1.863 0.825,-4.068 0.825,-6.615Z" style="fill:#206bfc;fill-rule:nonzero;stroke:#f00;stroke-opacity:0;stroke-width:1px;"/></g></svg>