<?xml version="1.0" encoding="UTF-8" standalone="no"?><!DOCTYPE svg PUBLIC "-//W3C//DTD SVG 1.1//EN" "http://www.w3.org/Graphics/SVG/1.1/DTD/svg11.dtd"><svg width="100%" height="100%" viewBox="0 0 400 400" version="1.1" xmlns="http://www.w3.org/2000/svg" xmlns:xlink="http://www.w3.org/1999/xlink" xml:space="preserve" xmlns:serif="http://www.serif.com/" style="fill-rule:evenodd;clip-rule:evenodd;stroke-linejoin:round;stroke-miterlimit:1.41421;"><circle cx="200" cy="200" r="190" style="fill:#206bfc;"/><g><path d="M213.435,81.772c7.415,7.415 7.415,19.455 0,26.87c-7.415,7.415 -19.455,7.415 -26.87,0c-7.415,-7.415 -7.415,-19.455 0,-26.87c7.415,-7.415 19.455,-7.415 26.87,0Z" style="fill:#fff;"/><path d="M248.366,116.703c7.415,7.415 7.415,19.455 0,26.87c-7.415,7.415 -19.455,7.415 -26.87,0c-7.415,-7.415 -7.415,-19.455 0,-26.87c7.415,-7.415 19.455,-7.415 26.87,0Z" style="fill:#fff;"/><path d="M283.297,151.634c7.415,7.415 7.415,19.455 0,26.87c-7.415,7.415 -19.455,7.415 -26.87,0c-7.415,-7.415 -7.415,-19.455 0,-26.87c7.415,-7.415 19.455,-7.415 26.87,0Z" style="fill:#fff;"/><path d="M318.228,186.565c7.415,7.415 7.415,19.455 0,26.87c-7.415,7.415 -19.455,7.415 -26.87,0c-7.415,-7.415 -7.415,-19.455 0,-26.87c7.415,-7.415 19.455,-7.415 26.87,0Z" style="fill:#fff;"/><path d="M283.297,221.496c7.415,7.415 7.415,19.455 0,26.87c-7.415,7.415 -19.455,7.415 -26.87,0c-7.415,-7.415 -7.415,-19.455 0,-26.87c7.415,-7.415 19.455,-7.415 26.87,0Z" style="fill:#fff;"/><path d="M143.573,151.634c7.415,7.415 7.415,19.455 0,26.87c-7.415,7.415 -19.455,7.415 -26.87,0c-7.415,-7.415 -7.415,-19.455 0,-26.87c7.415,-7.415 19.455,-7.415 26.87,0Z" style="fill:#fff;"/><path d="M175.431,114.26c7.415,7.415 7.415,19.455 0,26.87c-7.415,7.415 -19.455,7.415 -26.87,0c-7.415,-7.415 -7.415,-19.455 0,-26.87c7.415,-7.415 19.455,-7.415 26.87,0Z" style="fill:#fff;"/><path d="M178.504,186.565c7.415,7.415 7.415,19.455 0,26.87c-7.415,7.415 -19.455,7.415 -26.87,0c-7.415,-7.415 -7.415,-19.455 0,-26.87c7.415,-7.415 19.455,-7.415 26.87,0Z" style="fill:#fff;"/><path d="M213.435,221.496c7.415,7.415 7.415,19.455 0,26.87c-7.415,7.415 -19.455,7.415 -26.87,0c-7.415,-7.415 -7.415,-19.455 0,-26.87c7.415,-7.415 19.455,-7.415 26.87,0Z" style="fill:#fff;"/><path d="M248.366,256.427c7.415,7.415 7.415,19.455 0,26.87c-7.415,7.415 -19.455,7.415 -26.87,0c-7.415,-7.415 -7.415,-19.455 0,-26.87c7.415,-7.415 19.455,-7.415 26.87,0Z" style="fill:#fff;"/><path d="M108.642,186.565c7.415,7.415 7.415,19.455 0,26.87c-7.415,7.415 -19.455,7.415 -26.87,0c-7.415,-7.415 -7.415,-19.455 0,-26.87c7.415,-7.415 19.455,-7.415 26.87,0Z" style="fill:#fff;"/><path d="M143.573,221.496c7.415,7.415 7.415,19.455 0,26.87c-7.415,7.415 -19.455,7.415 -26.87,0c-7.415,-7.415 -7.415,-19.455 0,-26.87c7.415,-7.415 19.455,-7.415 26.87,0Z" style="fill:#fff;"/><path d="M178.504,256.427c7.415,7.415 7.415,19.455 0,26.87c-7.415,7.415 -19.455,7.415 -26.87,0c-7.415,-7.415 -7.415,-19.455 0,-26.87c7.415,-7.415 19.455,-7.415 26.87,0Z" style="fill:#fff;"/><path d="M213.435,291.358c7.415,7.415 7.415,19.455 0,26.87c-7.415,7.415 -19.455,7.415 -26.87,0c-7.415,-7.415 -7.415,-19.455 0,-26.87c7.415,-7.415 19.455,-7.415 26.87,0Z" style="fill:#fff;"/><path d="M248.366,186.565c7.415,7.415 7.415,19.455 0,26.87c-7.415,7.415 -19.455,7.415 -26.87,0c-7.415,-7.415 -7.415,-19.455 0,-26.87c7.415,-7.415 19.455,-7.415 26.87,0Z" style="fill:#fff;"/><path d="M213.435,151.634c7.415,7.415 7.415,19.455 0,26.87c-7.415,7.415 -19.455,7.415 -26.87,0c-7.415,-7.415 -7.415,-19.455 0,-26.87c7.415,-7.415 19.455,-7.415 26.87,0Z" style="fill:#fff;"/></g></svg>